<svg xmlns="http:***REMOVED***www.w3.org/2000/svg" viewBox="0 0 64 64"><path d="M5.1 28.9h23.8V5.1H5.1zm.8-23h22.2v22.2H5.9zm30.2-.8v23.8h23.8V5.1zm.8.8h18.134c.015.102.032.205.053.313.062.325.147.77.009.926a.951.951 0 0 1-.694.126c-.522-.054-1.02.474-1.162.632a1.392 1.392 0 0 0-.426 1.074 5.806 5.806 0 0 0 .2.681c.299.881.414 1.363-.473 1.842a3.466 3.466 0 0 0-1.301 1.497c-.374.663-.612 1.038-1.156 1.038a1.322 1.322 0 0 1-.8-.37 2.05 2.05 0 0 0-1.272-.531 1.57 1.57 0 0 0-1.5 1.629c0 .706-.625 2.056-1.605 2.056-.298 0-.593-.592-.807-1.024a9.868 9.868 0 0 0-.232-.443c-.39-.703-.832-1.5-1.844-1.5a2.357 2.357 0 0 0-2.108 2.238 3.39 3.39 0 0 0 .142.91 2.62 2.62 0 0 1 .116.707c0 .303-.157.47-.434.742a1.752 1.752 0 0 0-.676 1.315 2.048 2.048 0 0 0 1.833 1.642l.555-.004a10.049 10.049 0 0 1 1.41.058c.293.028.48.714.48 1.063 0 .523-.403.924-.87 1.39-.692.69-1.554 1.551-.833 2.99.258.513.91.665 1.602.828a3.9 3.9 0 0 1 1.1.375H36.9zm22.2 22.2H45.363c-.264-.758-1.216-.985-1.939-1.154-.414-.096-.98-.23-1.07-.409-.44-.879-.048-1.334.684-2.063a2.843 2.843 0 0 0 1.103-1.957c0-.569-.293-1.77-1.198-1.859a10.88 10.88 0 0 0-1.5-.062l-.546.004c-.367 0-1.033-.543-1.033-.842 0-.303.157-.47.435-.742a1.752 1.752 0 0 0 .675-1.315 3.39 3.39 0 0 0-.142-.91 2.62 2.62 0 0 1-.116-.707 1.56 1.56 0 0 1 1.308-1.438c.516 0 .76.393 1.187 1.165.056.101.113.215.172.335.308.619.73 1.467 1.524 1.467 1.468 0 2.405-1.692 2.405-2.856a.797.797 0 0 1 .7-.828 1.294 1.294 0 0 1 .791.369 2.069 2.069 0 0 0 1.28.532c1.039 0 1.472-.768 1.853-1.446a2.778 2.778 0 0 1 .985-1.187c1.522-.822 1.118-2.013.85-2.801a5.327 5.327 0 0 1-.171-.57 1.347 1.347 0 0 1 .743-.763 1.558 1.558 0 0 0 1.35-.393 1.827 1.827 0 0 0 .18-1.607l-.029-.163H59.1zm-54 31.8h23.8V36.1H5.1zm5.684-.8a4.778 4.778 0 0 1-1.558-2.527l-.006-.026a6.917 6.917 0 0 1 3.817-.711c.113.013.223.028.33.044a1.68 1.68 0 0 0 1.729-.444 5.636 5.636 0 0 1 1.307-.976c.734-.452 1.428-.878 1.546-1.525a1.211 1.211 0 0 0-.284-.973 2.197 2.197 0 0 1 .001-2.36c1.068-2.318 4.042-4.52 4.822-4.56 3.908-.196 4.624-1.016 5.34-2.342a9.85 9.85 0 0 1 .272-.476V59.1zM5.9 36.9h22.2v4.034a5.639 5.639 0 0 0-.977 1.386c-.543 1.007-.936 1.736-4.675 1.923-1.201.06-4.376 2.567-5.509 5.025a2.96 2.96 0 0 0 .093 3.182c.155.202.136.306.13.34-.054.297-.651.664-1.178.988a6.143 6.143 0 0 0-1.496 1.137c-.236.271-.479.251-1.007.173a3.065 3.065 0 0 0-.295-.035 7.302 7.302 0 0 0-4.548.937.581.581 0 0 0-.236.527 2.453 2.453 0 0 0 .047.244A5.574 5.574 0 0 0 9.65 59.1H5.9zm30.2 23h23.8V36.1H36.1zm.8-3.61l11.706-7.118 9.928 9.928H36.9zm22.2 2.244l-9.988-9.987L52.224 36.9H59.1zM51.397 36.9l-3.075 11.508L36.9 55.353V36.9zM24 20h-2v-2h2zm-5-9h-2V9h2zm-7 12h-2v-2h2z"/></svg>