<?xml version="1.0" standalone="no"?>
<!DOCTYPE svg PUBLIC "-//W3C//DTD SVG 20010904//EN"
 "http://www.w3.org/TR/2001/REC-SVG-20010904/DTD/svg10.dtd">
<svg version="1.0" xmlns="http://www.w3.org/2000/svg"
 width="700.000000pt" height="700.000000pt" viewBox="0 0 700.000000 700.000000"
 preserveAspectRatio="xMidYMid meet">
<g transform="translate(0.000000,700.000000) scale(0.100000,-0.100000)"
fill="#000000" stroke="none">
<path d="M6132 5459 c-167 -22 -284 -161 -284 -334 0 -189 138 -333 327 -340
133 -5 256 68 315 188 99 201 -21 444 -238 483 -59 11 -64 11 -120 3z"/>
<path d="M1230 4488 c-236 -22 -477 -138 -649 -311 -320 -324 -406 -806 -215
-1214 118 -252 342 -459 596 -552 144 -53 216 -65 393 -65 152 0 191 5 310 39
145 42 289 120 393 213 l54 47 -163 162 -162 163 -22 -24 c-74 -80 -215 -157
-332 -181 -57 -12 -205 -14 -261 -4 -210 39 -406 239 -423 434 l-4 40 765 2
c421 1 772 2 780 2 13 1 16 19 14 114 -2 149 -12 269 -29 343 -8 34 -16 73
-19 85 -2 13 -16 58 -31 99 -156 430 -518 652 -995 608z m204 -393 c195 -51
333 -213 353 -414 l5 -56 -526 0 -526 0 6 45 c27 199 182 372 380 424 72 19
238 20 308 1z"/>
<path d="M3220 4493 c-293 -34 -497 -141 -623 -327 -30 -45 -64 -128 -72 -178
-3 -18 -8 -42 -12 -52 -7 -25 -6 -160 2 -206 20 -119 59 -196 135 -271 62 -61
115 -94 215 -134 67 -27 285 -87 285 -79 0 3 8 0 18 -5 9 -5 35 -12 56 -15
145 -23 287 -79 339 -134 78 -82 59 -219 -41 -291 -95 -67 -267 -89 -399 -49
-123 37 -207 88 -293 179 l-46 48 -164 -165 -164 -165 49 -48 c126 -121 303
-208 495 -245 75 -15 376 -15 445 -1 17 3 63 13 104 21 168 35 323 114 423
217 161 166 201 464 93 684 -67 137 -210 236 -431 302 -55 16 -118 32 -138 35
-21 4 -42 8 -46 11 -3 2 -21 7 -38 10 -210 37 -348 100 -378 172 -61 145 76
277 287 276 141 0 258 -51 353 -153 l46 -50 161 161 c179 179 171 159 91 232
-93 87 -234 161 -374 198 -63 17 -115 22 -218 23 -74 1 -146 1 -160 -1z"/>
<path d="M5385 4485 c-186 -32 -353 -145 -451 -304 l-39 -65 -5 165 -5 164
-253 0 -252 0 2 -1025 3 -1025 248 0 c137 0 251 3 253 6 2 4 4 263 4 575 1
617 2 634 56 749 33 69 116 161 184 205 81 52 179 78 292 78 53 0 129 -6 168
-14 40 -9 73 -14 75 -12 4 4 13 153 20 344 l6 142 -48 11 c-74 17 -181 19
-258 6z"/>
<path d="M5934 4441 c-2 -2 -4 -464 -4 -1025 l0 -1022 255 0 255 0 1 51 c3
364 -1 1988 -5 1993 -7 7 -495 10 -502 3z"/>
</g>
</svg>
